<svg xmlns="http://www.w3.org/2000/svg" xmlns:xlink="http://www.w3.org/1999/xlink" width="2958" height="1326" viewBox="0 0 2958 1326">
  <defs>
    <clipPath id="clip-path">
      <rect id="Rectangle_1" data-name="Rectangle 1" width="2958" height="1326" transform="translate(-342 -4878)" fill="#fff" stroke="#707070" stroke-width="1"/>
    </clipPath>
    <linearGradient id="linear-gradient" y1="0.5" x2="1" y2="0.5" gradientUnits="objectBoundingBox">
      <stop offset="0" stop-color="#5b3acc"/>
      <stop offset="0" stop-color="#ffab00"/>
      <stop offset="1" stop-color="#ff7000"/>
    </linearGradient>
    <linearGradient id="linear-gradient-2" x1="1.218" y1="-0.07" x2="-0.149" y2="1.015" xlink:href="#linear-gradient"/>
    <linearGradient id="linear-gradient-6" x1="1.288" y1="0.107" x2="-0.314" y2="0.906" xlink:href="#linear-gradient"/>
    <linearGradient id="linear-gradient-7" x1="1.28" y1="-0.092" x2="-0.321" y2="1.124" xlink:href="#linear-gradient"/>
  </defs>
  <g id="hero_orange" transform="translate(342 4878)" clip-path="url(#clip-path)">
    <g id="Group_33" data-name="Group 33" transform="translate(-5896.56 -2213.36)">
      <path id="Path_21951-4" data-name="Path 21951-4" d="M6625.38-1887.25,4587.86-1476.7v-506.469l2037.53-410.545Z" transform="translate(0 -10)" fill="url(#linear-gradient)"/>
      <path id="Path_21951-4-2" data-name="Path 21951-4" d="M8654.84-2296.97,6617.32-1886.43V-2392.9l2037.52-410.54Z" transform="translate(0 -10)" fill="url(#linear-gradient-2)"/>
      <path id="Path_21951-4-3" data-name="Path 21951-4" d="M8112.15-1178,6074.62-767.452v-506.47l2037.53-410.545Z" transform="translate(0 -40)" fill="url(#linear-gradient)"/>
      <path id="Path_21951-4-4" data-name="Path 21951-4" d="M10141.6-1587.72,8104.08-1177.18v-506.469L10141.61-2094.2Z" transform="translate(0 -40)" fill="url(#linear-gradient-2)"/>
      <path id="Path_21951-4-5" data-name="Path 21951-4" d="M9023.8-1866.49,6986.27-1455.94v-506.469L9023.8-2372.96Z" transform="translate(-5 -30)" fill="url(#linear-gradient)"/>
      <path id="Path_21951-4-6" data-name="Path 21951-4" d="M6986.27-1456.77,4948.74-1046.22v-506.469l2037.53-410.546Z" transform="translate(0 -30)" fill="url(#linear-gradient-6)"/>
      <path id="Path_21951-4-7" data-name="Path 21951-4" d="M11053.3-2276.21,9015.73-1865.67v-506.469l2037.53-410.546Z" transform="translate(-14 -27)" fill="url(#linear-gradient-7)"/>
      <path id="Path_21951-4-8" data-name="Path 21951-4" d="M7537.03-2575.74,5499.51-2165.19v-506.469L7537.04-3082.2Z" transform="translate(10)" fill="url(#linear-gradient)"/>
      <path id="Path_21951-4-9" data-name="Path 21951-4" d="M5499.51-2166.01,3461.98-1755.47v-506.47l2037.53-410.545Z" transform="translate(20)" fill="url(#linear-gradient-6)"/>
      <path id="Path_21951-4-10" data-name="Path 21951-4" d="M9566.5-2985.46,7528.97-2574.92v-506.469L9566.5-3491.93Z" transform="translate(1 3)" fill="url(#linear-gradient-7)"/>
    </g>
  </g>
</svg>
