<?xml version="1.0" encoding="UTF-8"?>
<svg width="45px" height="44px" viewBox="0 0 45 44" version="1.1" xmlns="http://www.w3.org/2000/svg" xmlns:xlink="http://www.w3.org/1999/xlink">
    <!-- Generator: Sketch 55.2 (78181) - https://sketchapp.com -->
    <title>path22</title>
    <desc>Created with Sketch.</desc>
    <g id="Page-1" stroke="none" stroke-width="1" fill="none" fill-rule="evenodd">
        <g id="2b50" transform="translate(0.000000, -1.000000)" fill="#FFAC33" fill-rule="nonzero" stroke="#FFAC33" stroke-width="2">
            <g id="g10" transform="translate(22.500000, 22.500000) scale(-1, 1) rotate(-180.000000) translate(-22.500000, -22.500000) ">
                <g id="g12">
                    <g id="g14-Clipped">
                        <g id="g14" transform="translate(0.000000, 1.250000)">
                            <g id="g20" transform="translate(0.358250, 0.466375)">
                                <path d="M33.75,-7.50008e-06 C33.245,-7.50008e-06 32.7425,0.155 32.31,0.46375 L22.1425,7.75625 L11.97375,0.46375 C11.1075,-0.15625 9.945,-0.15625 9.08375,0.47375 C8.2225,1.0975 7.86,2.205 8.1825,3.21625 L11.975,15.45625 L1.8975,22.55625 C1.04125,23.18875 0.685,24.2975 1.0125,25.31125 C1.3425,26.32 2.2825,27.0075 3.345,27.015 L15.825,27.03375 L19.79875,38.97 C20.13375,39.98125 21.0775,40.66125 22.1425,40.66125 C23.20625,40.66125 24.15,39.98125 24.48625,38.97 L28.39125,27.03375 L40.9375,27.015 C42.0025,27.0075 42.94375,26.32 43.27125,25.31125 C43.6,24.2975 43.24375,23.18875 42.38625,22.55625 L32.30875,15.45625 L36.10125,3.21625 C36.42625,2.205 36.06,1.0975 35.20125,0.47375 C34.7675,0.15625 34.25875,-7.50008e-06 33.75,-7.50008e-06" id="path22"></path>
                            </g>
                        </g>
                    </g>
                </g>
            </g>
        </g>
    </g>
</svg>