<svg width="50" height="50" viewBox="0 0 50 50" fill="none" xmlns="http://www.w3.org/2000/svg">
<mask id="mask0_2522_2" style="mask-type:luminance" maskUnits="userSpaceOnUse" x="0" y="0" width="50" height="50">
<path d="M49.24 0.380005H0V49.62H49.24V0.380005Z" fill="white"/>
</mask>
<g mask="url(#mask0_2522_2)">
<path d="M5.62943 49.3395C5.96754 49.5269 6.34117 49.62 6.7145 49.62C7.12677 49.62 7.53845 49.5061 7.90074 49.2798L43.7116 26.8981C44.3661 26.4891 44.7636 25.7719 44.7636 25.0002C44.7636 24.2284 44.3661 23.5112 43.7116 23.1022L7.90074 0.720209C7.21063 0.288837 6.34102 0.266156 5.62943 0.660524C4.91784 1.05504 4.47632 1.80453 4.47632 2.61819V47.3818C4.47632 48.1955 4.91784 48.945 5.62943 49.3395Z" fill="#213753"/>
</g>
</svg>
